<svg xmlns="http://www.w3.org/2000/svg" viewBox="0 0 903.82 336"><defs><linearGradient id="a" x1="686.9" x2="719.05" y1="215.39" y2="215.39" gradientUnits="userSpaceOnUse"><stop offset="0" stop-color="#ffc100"/><stop offset=".06" stop-color="#f5c10a"/><stop offset=".17" stop-color="#dcbf26"/><stop offset=".31" stop-color="#b2be53"/><stop offset=".47" stop-color="#78bb90"/><stop offset=".58" stop-color="#4cb9c0"/><stop offset="1" stop-color="#97c804"/></linearGradient><style>.a{fill:#fff}.b{font-size:24px;font-family:YSText-Medium,YS Text;font-weight:500}.b,.l{fill:#3b4856}.f{letter-spacing:-.01em}.i,.k,.r{fill:none;stroke-linecap:round;stroke-linejoin:round}.i{stroke:#fff;stroke-width:4px}.j{opacity:.4}.k{stroke:#3b4856}.k,.r{stroke-width:2px}.m{fill:#97c804}.n{fill:#9da3ab}.o{fill:#ffc100}.p{fill:#4cb9c0}.q{opacity:.8}.r{stroke:#c81d6b}.s{fill:#c81d6b}</style></defs><path d="M0 0h903.82v336H0z" class="a"/><text class="b" transform="translate(81.26 50.56)">G<tspan x="17.81" y="0" style="letter-spacing:-.01em">r</tspan><tspan x="26.78" y="0">aph</tspan></text><text class="b" transform="translate(635.05 50.56)">P<tspan x="14.86" y="0" style="letter-spacing:-.01em">r</tspan><tspan x="23.81" y="0" style="letter-spacing:0">o</tspan><tspan x="37.75" y="0" class="f">p</tspan><tspan x="52.37" y="0" style="letter-spacing:0">agation</tspan></text><text class="b" transform="translate(354.66 50.56)">Me<tspan x="34.25" y="0" style="letter-spacing:0">s</tspan><tspan x="45.65" y="0" class="f">s</tspan><tspan x="57.02" y="0">ages</tspan></text><path d="M115.69 103.17v112.22l-95.31 52.54" class="i"/><path d="m20.42 267.73.04.01-.07.18.2.05-.01.04-.24-.06z" class="a"/><g class="j"><path d="M115.69 103.17v112.22l-94.02 51.83" class="k"/><path d="m22.97 259.97 1.33.43-2.16 6.56 6.7 1.67-.34 1.36-8.16-2.04z" class="l"/></g><path d="m211.04 267.95-95.31-52.54" class="i"/><path d="m115.93 215.33.01.04-.2.05.07.18-.04.02-.08-.23z" class="a"/><g class="j"><path d="m211.04 267.95-94.02-51.83" class="k"/><path d="m123.85 213.35.34 1.36-6.7 1.67 2.16 6.56-1.33.43-2.63-7.98z" class="l"/></g><circle cx="115.69" cy="103.17" r="16.07" class="m"/><circle cx="115.69" cy="215.39" r="16.07" class="n"/><circle cx="20.34" cy="267.95" r="16.07" class="o"/><circle cx="211.04" cy="267.95" r="16.07" class="p"/><path d="M32.32 302.38H32a6.4 6.4 0 0 1-.34 1.42 4.1 4.1 0 0 1-1.52.15h-3c.44-.37 1.43-1.41 1.85-1.8 2.46-2.27 3.37-3.11 3.37-4.72a3.14 3.14 0 0 0-3.36-3.11 3 3 0 0 0-3 3 .76.76 0 1 0 1.52.06.72.72 0 0 0-.76-.76.5.5 0 0 0-.22 0 2.36 2.36 0 0 1 2.23-1.85c1.38 0 2.22 1.15 2.22 2.64a5.65 5.65 0 0 1-1.71 3.62L26 304.71v.39h5.9ZM23.64 292.37a1.17 1.17 0 0 0-1 1.15.72.72 0 0 0 .78.74 1.21 1.21 0 0 0 1.16-1.26c0-1-1.12-1.43-2.11-1.43a3 3 0 0 0-2.42 1.85 2.43 2.43 0 0 0-2.41-1.85c-2.38 0-3.64 3.06-3.64 3.57a.23.23 0 0 0 .26.21c.18 0 .23-.14.28-.23.79-2.59 2.35-3.08 3-3.08 1.05 0 1.26 1 1.26 1.54a9.8 9.8 0 0 1-.42 2.17l-.79 3.2c-.35 1.4-1 2.69-2.27 2.69a2.33 2.33 0 0 1-1.19-.31 1.2 1.2 0 0 0 1-1.14.74.74 0 0 0-.79-.75 1.22 1.22 0 0 0-1.17 1.24c0 1 1.1 1.42 2.1 1.42a2.88 2.88 0 0 0 2.4-1.84 2.45 2.45 0 0 0 2.41 1.84c2.38 0 3.64-3.06 3.64-3.57a.21.21 0 0 0-.23-.21c-.21 0-.23.12-.3.3-.64 2.06-2 3-3 3-.82 0-1.26-.61-1.26-1.57a10.3 10.3 0 0 1 .47-2.43l.81-3.17c.35-1.4 1.15-2.43 2.22-2.43a2.5 2.5 0 0 1 1.21.35M221.25 299.28c-.28 0-.35 0-.35.18s.09.16.38.16h.72c1.38 0 2 1.14 2 2.69 0 2.13-1.1 2.69-1.9 2.69a2.88 2.88 0 0 1-2.58-1.44.79.79 0 0 0 1-.79.8.8 0 1 0-1.6.05c0 1.44 1.44 2.62 3.24 2.62a3.25 3.25 0 0 0 3.36-3.11 3.11 3.11 0 0 0-2.76-2.93 3.06 3.06 0 0 0 2.32-2.86c0-1.28-1.33-2.22-2.9-2.22s-2.83 1-2.83 2.17a.72.72 0 0 0 .75.78.74.74 0 1 0 0-1.47h-.17a2.66 2.66 0 0 1 2.22-1.1c.53 0 1.59.24 1.59 1.83a3.64 3.64 0 0 1-.52 1.91 1.62 1.62 0 0 1-1.48.78ZM215.77 292.37a1.17 1.17 0 0 0-1 1.15.72.72 0 0 0 .77.74 1.21 1.21 0 0 0 1.19-1.23c0-1-1.12-1.43-2.1-1.43a3 3 0 0 0-2.43 1.85 2.43 2.43 0 0 0-2.41-1.85c-2.38 0-3.64 3.06-3.64 3.57a.23.23 0 0 0 .26.21c.18 0 .23-.14.28-.23.79-2.59 2.36-3.08 3-3.08 1.05 0 1.26 1 1.26 1.54a9.8 9.8 0 0 1-.42 2.17l-.79 3.2c-.35 1.4-1 2.69-2.27 2.69a2.33 2.33 0 0 1-1.19-.31 1.2 1.2 0 0 0 1-1.14.74.74 0 0 0-.79-.75 1.22 1.22 0 0 0-1.17 1.24c0 1 1.1 1.42 2.1 1.42a2.89 2.89 0 0 0 2.41-1.84 2.43 2.43 0 0 0 2.4 1.84c2.38 0 3.64-3.06 3.64-3.57a.21.21 0 0 0-.23-.21c-.21 0-.23.12-.3.3-.63 2.06-2 3-3 3-.82 0-1.26-.61-1.26-1.57a10.3 10.3 0 0 1 .47-2.43l.81-3.17c.35-1.4 1.15-2.43 2.22-2.43a2.5 2.5 0 0 1 1.19.32M125 242c0-.38 0-.39-.32-.39a3.59 3.59 0 0 1-2.87 1v.47a4.6 4.6 0 0 0 2.07-.43v8.45c0 .58 0 .78-1.47.78h-.5v.47h5.07v-.47h-.5c-1.43 0-1.48-.2-1.48-.78ZM119 239.39a1.17 1.17 0 0 0-1 1.15.72.72 0 0 0 .77.74 1.21 1.21 0 0 0 1.19-1.23c0-1-1.12-1.43-2.1-1.43a3 3 0 0 0-2.43 1.85 2.42 2.42 0 0 0-2.4-1.85c-2.38 0-3.64 3.06-3.64 3.57a.24.24 0 0 0 .25.22c.19 0 .24-.15.28-.24.8-2.59 2.36-3.08 3-3.08 1 0 1.26 1 1.26 1.54a9.8 9.8 0 0 1-.42 2.17l-.8 3.2c-.35 1.4-1 2.69-2.26 2.69a2.3 2.3 0 0 1-1.19-.31 1.2 1.2 0 0 0 1-1.14.74.74 0 0 0-.8-.75 1.21 1.21 0 0 0-1.16 1.24c0 1 1.09 1.42 2.1 1.42a2.88 2.88 0 0 0 2.4-1.84 2.44 2.44 0 0 0 2.41 1.84c2.38 0 3.64-3.06 3.64-3.57a.21.21 0 0 0-.23-.21c-.21 0-.24.12-.31.3-.63 2.06-2 3-3 3-.82 0-1.26-.61-1.26-1.57a10.6 10.6 0 0 1 .46-2.43l.82-3.17c.35-1.4 1.14-2.43 2.22-2.43a2.55 2.55 0 0 1 1.2.32M126.45 72.53c0-.31 0-.39-.22-.39s-.18 0-.31.2L121 79.91v.47h4.26v1.47c0 .6 0 .77-1.21.77h-.33v.47h4.23v-.47h-.32c-1.17 0-1.22-.17-1.22-.77v-1.47h1.64v-.47h-1.64Zm-1.07 1.27v6.11h-3.94ZM119 70.36a1.18 1.18 0 0 0-1 1.14.73.73 0 0 0 .78.75 1.22 1.22 0 0 0 1.14-1.25c0-1-1.12-1.42-2.11-1.42a3 3 0 0 0-2.42 1.84 2.42 2.42 0 0 0-2.39-1.83c-2.38 0-3.64 3.06-3.64 3.57a.24.24 0 0 0 .26.21c.18 0 .23-.14.28-.23.79-2.6 2.35-3.09 3-3.09 1 0 1.26 1 1.26 1.54a9.7 9.7 0 0 1-.42 2.18L113 77c-.35 1.4-1 2.68-2.27 2.68a2.4 2.4 0 0 1-1.19-.3 1.22 1.22 0 0 0 1-1.15.73.73 0 0 0-.79-.74 1.22 1.22 0 0 0-1.17 1.23c0 1 1.1 1.43 2.1 1.43a2.91 2.91 0 0 0 2.41-1.85 2.44 2.44 0 0 0 2.4 1.85c2.38 0 3.64-3.06 3.64-3.58a.22.22 0 0 0-.23-.21c-.21 0-.23.12-.3.31-.64 2-2 3-3 3-.82 0-1.26-.61-1.26-1.56a10.2 10.2 0 0 1 .47-2.43l.81-3.18c.35-1.4 1.15-2.43 2.22-2.43a2.46 2.46 0 0 1 1.16.29" class="l"/><g class="q"><path d="M99.62 144.78h32.15v20.96H99.62z" class="a"/></g><g class="q"><path d="M187.67 252.95H150.6l-.57-20.22h37.07z" class="a"/></g><g class="q"><path d="M47.46 228.95h30.56v25.44H47.46z" class="a"/></g><path d="M125.08 152.33c0-.38 0-.39-.32-.39a3.63 3.63 0 0 1-2.87 1v.47A4.7 4.7 0 0 0 124 153v8.45c0 .58 0 .78-1.47.78H122v.47h5.07v-.47h-.5c-1.43 0-1.48-.2-1.48-.78ZM119.25 152.16c0-.3 0-.39-.23-.39s-.17 0-.3.2l-4.88 7.57v.46h4.26v1.48c0 .59 0 .76-1.22.76h-.32v.47h4.23v-.47h-.32c-1.17 0-1.22-.17-1.22-.76V160h1.64v-.47h-1.64Zm-1.07 1.27v6.11h-3.94ZM107.45 152.85a10.8 10.8 0 0 0 3.34-.47 2.65 2.65 0 0 0 1.94-2.45c0-1-.89-2-2.43-2a6.32 6.32 0 0 0-6 6.38c0 2.45 1.41 4.15 3.53 4.15a6.15 6.15 0 0 0 5.18-2.78.27.27 0 0 0-.23-.25c-.07 0-.09 0-.3.23a6 6 0 0 1-4.6 2.33c-1.33 0-2-1.05-2-2.77a9.6 9.6 0 0 1 .35-2.41Zm-1.12-.47c1-3.59 3.23-3.94 4-3.94a1.54 1.54 0 0 1 1.73 1.49c0 2.45-3.74 2.45-4.72 2.45ZM167.25 242.93c-.27 0-.34 0-.34.18s.08.16.38.16h.71c1.38 0 2 1.13 2 2.69 0 2.12-1.11 2.69-1.9 2.69a2.88 2.88 0 0 1-2.58-1.44.8.8 0 0 0 1-.8.76.76 0 0 0-.79-.79.77.77 0 0 0-.81.84c0 1.44 1.44 2.63 3.24 2.63a3.24 3.24 0 0 0 3.35-3.11 3.12 3.12 0 0 0-2.75-2.94 3.05 3.05 0 0 0 2.32-2.85c0-1.28-1.33-2.22-2.91-2.22s-2.82 1-2.82 2.17a.74.74 0 1 0 1.48.05.72.72 0 0 0-.75-.75.4.4 0 0 0-.18 0 2.68 2.68 0 0 1 2.23-1.1c.53 0 1.58.24 1.58 1.83a3.6 3.6 0 0 1-.51 1.91 1.66 1.66 0 0 1-1.48.78ZM176 238.7c0-.38 0-.39-.32-.39a3.63 3.63 0 0 1-2.87 1v.47a4.7 4.7 0 0 0 2.08-.42v8.45c0 .58-.05.78-1.48.78h-.5v.47h5.07v-.47h-.5c-1.43 0-1.48-.2-1.48-.78ZM158.33 239.13a10.7 10.7 0 0 0 3.33-.46 2.66 2.66 0 0 0 1.94-2.46c0-1-.89-2-2.43-2a6.31 6.31 0 0 0-6 6.38c0 2.45 1.4 4.15 3.52 4.15a6.18 6.18 0 0 0 5.19-2.78.27.27 0 0 0-.24-.25c-.07 0-.09 0-.3.23a6 6 0 0 1-4.6 2.34c-1.33 0-2-1-2-2.78a9.6 9.6 0 0 1 .35-2.41Zm-1.13-.46c1-3.6 3.23-3.95 4-3.95a1.54 1.54 0 0 1 1.73 1.49c0 2.46-3.73 2.46-4.71 2.46ZM65.91 246.36h-.36a5.5 5.5 0 0 1-.34 1.43 4.1 4.1 0 0 1-1.52.15h-3c.44-.38 1.43-1.41 1.85-1.8 2.46-2.27 3.37-3.12 3.37-4.72a3.13 3.13 0 0 0-3.35-3.11 3 3 0 0 0-3 3 .77.77 0 1 0 1.53.06.73.73 0 0 0-.77-.76.5.5 0 0 0-.22 0 2.36 2.36 0 0 1 2.23-1.85c1.38 0 2.23 1.15 2.23 2.64a5.62 5.62 0 0 1-1.71 3.6l-3.28 3.67v.39h5.92ZM70.36 238.7c0-.38 0-.39-.32-.39a3.63 3.63 0 0 1-2.87 1v.47a4.7 4.7 0 0 0 2.07-.42v8.45c0 .58 0 .78-1.47.78h-.5v.47h5.07v-.47h-.5c-1.43 0-1.48-.2-1.48-.78ZM52.73 239.13a10.8 10.8 0 0 0 3.34-.46 2.66 2.66 0 0 0 1.93-2.46c0-1-.89-2-2.43-2a6.32 6.32 0 0 0-6 6.38c0 2.45 1.41 4.15 3.53 4.15a6.15 6.15 0 0 0 5.21-2.74.27.27 0 0 0-.23-.25c-.07 0-.09 0-.3.23a6 6 0 0 1-4.6 2.34c-1.33 0-2-1-2-2.78a9.6 9.6 0 0 1 .35-2.41Zm-1.12-.46c1-3.6 3.22-3.95 4-3.95a1.54 1.54 0 0 1 1.73 1.49c0 2.46-3.74 2.46-4.72 2.46Z" class="l"/><path d="M408.39 103.17v112.22l-95.31 52.54" class="i"/><path d="m313.12 267.73.03.01-.06.18.19.05-.01.04-.23-.06z" class="a"/><g class="j"><path d="M408.39 103.17v112.22l-94.02 51.83" class="k"/><path d="m315.67 259.97 1.33.43-2.16 6.56 6.7 1.67-.34 1.36-8.16-2.04z" class="l"/></g><path d="m503.74 267.95-95.31-52.54" class="i"/><path d="m408.62 215.33.01.04-.19.05.06.18-.03.02-.08-.23z" class="a"/><g class="j"><path d="m503.74 267.95-94.02-51.83" class="k"/><path d="m416.55 213.35.34 1.36-6.7 1.67 2.16 6.56-1.33.43-2.63-7.98z" class="l"/></g><circle cx="408.39" cy="103.17" r="16.07" class="m"/><circle cx="408.39" cy="215.39" r="16.07" class="n"/><circle cx="313.04" cy="267.95" r="16.07" class="o"/><circle cx="503.74" cy="267.95" r="16.07" class="p"/><path d="M328.26 302.72h-.36a6.4 6.4 0 0 1-.34 1.42 4.2 4.2 0 0 1-1.53.15h-3c.43-.37 1.42-1.41 1.84-1.8 2.47-2.27 3.38-3.11 3.38-4.72a3.14 3.14 0 0 0-3.36-3.11 3 3 0 0 0-3 3 .76.76 0 1 0 1.52.07.73.73 0 0 0-.76-.77.6.6 0 0 0-.23 0 2.38 2.38 0 0 1 2.24-1.85c1.38 0 2.22 1.15 2.22 2.64a5.6 5.6 0 0 1-1.72 3.62l-3.27 3.66v.39h5.91ZM306.37 295.06a6.6 6.6 0 0 1 1.5-2.06 3.4 3.4 0 0 1 2.31-.93c.93 0 1.26.7 1.26 1.63a6.8 6.8 0 0 1-.28 1.71l-.58 2.4c-.19.7-.63 2.43-.68 2.69s-.23 1-.23 1.05a.57.57 0 0 0 .6.58c.7 0 .82-.53 1-1.38l1.4-5.58c.05-.18 1.26-3.1 3.83-3.1.93 0 1.26.7 1.26 1.63a21.2 21.2 0 0 1-1.42 5.26 3.5 3.5 0 0 0-.33 1.28 1.8 1.8 0 0 0 1.84 1.89c2.18 0 3-3.43 3-3.57a.21.21 0 0 0-.23-.21c-.21 0-.23.07-.35.47-.54 1.86-1.4 2.85-2.34 2.85-.23 0-.6 0-.6-.78a5.5 5.5 0 0 1 .37-1.61 21 21 0 0 0 1.47-5.23 2.31 2.31 0 0 0-2.59-2.45 4.56 4.56 0 0 0-3.76 2.27 2.3 2.3 0 0 0-2.59-2.27 4.38 4.38 0 0 0-3.6 2.06 2 2 0 0 0-2-2.06 1.8 1.8 0 0 0-1.66 1.22 11 11 0 0 0-.75 2.35.24.24 0 0 0 .26.21c.19 0 .21 0 .35-.56.35-1.37.8-2.75 1.73-2.75.54 0 .72.37.72 1.07a13 13 0 0 1-.39 2.15l-.66 2.52c-.09.45-.35 1.5-.46 1.92-.17.6-.42 1.7-.42 1.82a.57.57 0 0 0 .6.58.91.91 0 0 0 .8-.49c0-.11.25-.93.37-1.4l.51-2.1ZM333 295.05c0-.37 0-.39-.32-.39a3.59 3.59 0 0 1-2.87 1v.47a4.7 4.7 0 0 0 2.08-.42v8.44c0 .59-.05.78-1.48.78h-.5v.47h5.07v-.4h-.5c-1.43 0-1.48-.19-1.48-.78ZM517.87 299.28c-.27 0-.34 0-.34.18s.08.16.37.16h.75c1.38 0 2 1.14 2 2.69 0 2.13-1.1 2.69-1.89 2.69a2.88 2.88 0 0 1-2.58-1.44.79.79 0 0 0 1-.79.81.81 0 1 0-1.61.05c0 1.44 1.45 2.62 3.25 2.62a3.24 3.24 0 0 0 3.35-3.11 3.11 3.11 0 0 0-2.75-2.93 3.05 3.05 0 0 0 2.31-2.86c0-1.28-1.33-2.22-2.9-2.22s-2.82 1-2.82 2.17a.74.74 0 1 0 1.48.05.71.71 0 0 0-.75-.74h-.18a2.67 2.67 0 0 1 2.22-1.1c.54 0 1.59.24 1.59 1.83a3.64 3.64 0 0 1-.52 1.91 1.6 1.6 0 0 1-1.47.78ZM526.81 295.05c0-.37 0-.39-.32-.39a3.59 3.59 0 0 1-2.87 1v.47a4.7 4.7 0 0 0 2.07-.42v8.44c0 .59 0 .78-1.47.78h-.5v.47h5.07v-.4h-.5c-1.43 0-1.48-.19-1.48-.78ZM498.14 295.06a6.7 6.7 0 0 1 1.49-2.06 3.42 3.42 0 0 1 2.32-.93c.93 0 1.26.7 1.26 1.63a6.8 6.8 0 0 1-.28 1.71l-.59 2.4c-.18.7-.63 2.43-.67 2.69a9 9 0 0 0-.24 1.05.58.58 0 0 0 .61.58c.7 0 .82-.53 1-1.38l1.4-5.58c0-.18 1.26-3.1 3.83-3.1.93 0 1.26.7 1.26 1.63a20.8 20.8 0 0 1-1.43 5.26 3.4 3.4 0 0 0-.32 1.28 1.8 1.8 0 0 0 1.84 1.89c2.17 0 3-3.43 3-3.57a.21.21 0 0 0-.23-.21c-.21 0-.24.07-.35.47-.54 1.86-1.41 2.85-2.34 2.85-.23 0-.61 0-.61-.78a5.1 5.1 0 0 1 .38-1.61 21 21 0 0 0 1.47-5.23 2.31 2.31 0 0 0-2.59-2.45 4.53 4.53 0 0 0-3.76 2.27 2.3 2.3 0 0 0-2.59-2.27 4.38 4.38 0 0 0-3.6 2.06 2 2 0 0 0-2.05-2.06 1.79 1.79 0 0 0-1.66 1.22 11 11 0 0 0-.75 2.35.23.23 0 0 0 .26.21c.18 0 .21 0 .35-.56.35-1.37.79-2.75 1.73-2.75.53 0 .72.37.72 1.07a12 12 0 0 1-.4 2.15l-.65 2.52c-.09.45-.35 1.5-.47 1.92-.16.6-.42 1.7-.42 1.82a.58.58 0 0 0 .61.58.88.88 0 0 0 .79-.49c0-.11.26-.93.38-1.4l.51-2.1ZM420.69 242c0-.38 0-.39-.33-.39a3.59 3.59 0 0 1-2.87 1v.47a4.6 4.6 0 0 0 2.08-.43v8.45c0 .58-.05.78-1.48.78h-.5v.47h5.07v-.47h-.5c-1.43 0-1.47-.2-1.47-.78ZM400.13 242.08a6.6 6.6 0 0 1 1.5-2.06 3.37 3.37 0 0 1 2.31-.93c.93 0 1.26.7 1.26 1.63a6.8 6.8 0 0 1-.28 1.71l-.59 2.4c-.18.7-.63 2.43-.67 2.69a9 9 0 0 0-.24 1 .58.58 0 0 0 .61.58c.7 0 .82-.53 1-1.37l1.4-5.59c.05-.18 1.26-3.1 3.83-3.1.93 0 1.26.7 1.26 1.63a20.8 20.8 0 0 1-1.43 5.26 3.4 3.4 0 0 0-.32 1.28 1.8 1.8 0 0 0 1.84 1.89c2.17 0 3-3.43 3-3.57a.21.21 0 0 0-.23-.21c-.21 0-.24.07-.35.47-.54 1.87-1.4 2.85-2.34 2.85-.23 0-.61 0-.61-.77a5.1 5.1 0 0 1 .38-1.62 21 21 0 0 0 1.47-5.23 2.31 2.31 0 0 0-2.59-2.45 4.53 4.53 0 0 0-3.76 2.27 2.3 2.3 0 0 0-2.59-2.27 4.38 4.38 0 0 0-3.6 2.06 2 2 0 0 0-2.05-2.06 1.79 1.79 0 0 0-1.66 1.22 11 11 0 0 0-.75 2.35.24.24 0 0 0 .26.22c.19 0 .21 0 .35-.57.35-1.37.79-2.75 1.73-2.75.53 0 .72.37.72 1.07a12 12 0 0 1-.4 2.15l-.65 2.52c-.09.45-.35 1.5-.47 1.92-.16.6-.42 1.7-.42 1.82a.58.58 0 0 0 .61.58.88.88 0 0 0 .79-.49c0-.11.26-.93.38-1.4l.51-2.1Z" class="l"/><g class="q"><path d="M392.32 144.78h32.15v20.96h-32.15z" class="a"/></g><g class="q"><path d="M443.13 232.73h36.66v20.22h-36.66z" class="a"/></g><g class="q"><path d="M340.16 228.95h30.56v25.44h-30.56z" class="a"/></g><path d="M417.78 152.33c0-.38 0-.39-.32-.39a3.63 3.63 0 0 1-2.87 1v.47a4.7 4.7 0 0 0 2.07-.42v8.45c0 .58-.05.78-1.47.78h-.51v.47h5.08v-.47h-.5c-1.43 0-1.48-.2-1.48-.78ZM412 152.16c0-.3 0-.39-.23-.39s-.17 0-.3.2l-4.88 7.57v.46h4.26v1.48c0 .59 0 .76-1.22.76h-.32v.47h4.23v-.47h-.32c-1.17 0-1.22-.17-1.22-.76V160h1.64v-.47H412Zm-1.07 1.27v6.11h-3.94ZM400.15 152.85a10.8 10.8 0 0 0 3.34-.47 2.65 2.65 0 0 0 1.94-2.45c0-1-.89-2-2.43-2a6.32 6.32 0 0 0-6 6.38c0 2.45 1.4 4.15 3.53 4.15a6.17 6.17 0 0 0 5.18-2.78.27.27 0 0 0-.23-.25c-.07 0-.09 0-.3.23a6 6 0 0 1-4.6 2.33c-1.34 0-2-1.05-2-2.77a9.6 9.6 0 0 1 .35-2.41Zm-1.12-.47c1-3.59 3.22-3.94 4-3.94a1.54 1.54 0 0 1 1.73 1.49c0 2.45-3.74 2.45-4.72 2.45ZM427.38 73.77c0-.37 0-.39-.32-.39a3.59 3.59 0 0 1-2.87 1v.47a4.7 4.7 0 0 0 2.07-.42v8.44c0 .59-.05.78-1.47.78h-.51v.47h5.08v-.47h-.51c-1.42 0-1.47-.19-1.47-.78ZM421.55 73.61c0-.31 0-.39-.23-.39s-.18 0-.31.19L416.13 81v.47h4.27v1.47c0 .6 0 .76-1.22.76h-.32v.47h4.23v-.47h-.33c-1.16 0-1.21-.16-1.21-.76v-1.48h1.64V81h-1.64Zm-1.07 1.26V81h-3.94ZM401.39 72.87a6.7 6.7 0 0 1 1.49-2.05 3.4 3.4 0 0 1 2.32-.94c.93 0 1.26.7 1.26 1.64a6.7 6.7 0 0 1-.28 1.7l-.59 2.41c-.18.7-.63 2.43-.67 2.68a9 9 0 0 0-.24 1 .59.59 0 0 0 .61.59c.7 0 .82-.54 1-1.38l1.4-5.58c0-.19 1.26-3.11 3.83-3.11.93 0 1.26.7 1.26 1.64a20.7 20.7 0 0 1-1.43 5.25 3.5 3.5 0 0 0-.32 1.29A1.8 1.8 0 0 0 412.9 80c2.17 0 3-3.44 3-3.58a.22.22 0 0 0-.23-.21c-.21 0-.24.07-.35.47-.54 1.87-1.41 2.85-2.34 2.85-.23 0-.61 0-.61-.77a5 5 0 0 1 .38-1.61 21.2 21.2 0 0 0 1.47-5.23 2.31 2.31 0 0 0-2.59-2.45 4.52 4.52 0 0 0-3.76 2.26 2.29 2.29 0 0 0-2.59-2.26 4.4 4.4 0 0 0-3.6 2 2 2 0 0 0-2.06-2 1.77 1.77 0 0 0-1.62 1.16 11 11 0 0 0-.75 2.36.24.24 0 0 0 .26.21c.18 0 .21 0 .35-.56.35-1.38.79-2.76 1.72-2.76.54 0 .73.38.73 1.08a12.5 12.5 0 0 1-.4 2.15l-.65 2.52c-.1.44-.35 1.49-.47 1.91-.16.61-.42 1.71-.42 1.82a.59.59 0 0 0 .61.59.89.89 0 0 0 .79-.49c0-.12.26-.94.38-1.4l.51-2.11ZM460 242.93c-.27 0-.34 0-.34.18s.08.16.37.16h.75c1.38 0 2 1.13 2 2.69 0 2.12-1.1 2.69-1.89 2.69a2.88 2.88 0 0 1-2.58-1.44.8.8 0 0 0 1-.8.76.76 0 0 0-.8-.79.78.78 0 0 0-.81.84c0 1.44 1.45 2.63 3.25 2.63a3.24 3.24 0 0 0 3.35-3.11 3.12 3.12 0 0 0-2.75-2.94 3 3 0 0 0 2.31-2.85c0-1.28-1.32-2.22-2.9-2.22s-2.82 1-2.82 2.17a.74.74 0 1 0 .73-.7.4.4 0 0 0-.18 0 2.67 2.67 0 0 1 2.22-1.1c.54 0 1.59.24 1.59 1.83a3.66 3.66 0 0 1-.52 1.91 1.64 1.64 0 0 1-1.47.78ZM468.65 238.7c0-.38 0-.39-.32-.39a3.63 3.63 0 0 1-2.87 1v.47a4.7 4.7 0 0 0 2.07-.42v8.45c0 .58 0 .78-1.47.78h-.5v.47h5.07v-.47h-.5c-1.43 0-1.48-.2-1.48-.78ZM451 239.13a10.8 10.8 0 0 0 3.34-.46 2.66 2.66 0 0 0 1.94-2.46c0-1-.89-2-2.43-2a6.32 6.32 0 0 0-6 6.38c0 2.45 1.41 4.15 3.53 4.15a6.15 6.15 0 0 0 5.22-2.74.27.27 0 0 0-.23-.25c-.07 0-.09 0-.3.23a6 6 0 0 1-4.6 2.34c-1.33 0-2-1-2-2.78a9.6 9.6 0 0 1 .35-2.41Zm-1.12-.46c1-3.6 3.23-3.95 4-3.95a1.54 1.54 0 0 1 1.73 1.49c0 2.46-3.74 2.46-4.72 2.46ZM358.61 246.36h-.36a6.5 6.5 0 0 1-.34 1.43 4.1 4.1 0 0 1-1.52.15h-3c.44-.38 1.43-1.41 1.85-1.8 2.46-2.27 3.37-3.12 3.37-4.72a3.14 3.14 0 0 0-3.36-3.11 3 3 0 0 0-3 3 .76.76 0 1 0 1.52.06.72.72 0 0 0-.76-.76.5.5 0 0 0-.22 0 2.35 2.35 0 0 1 2.23-1.85c1.38 0 2.22 1.15 2.22 2.64a5.6 5.6 0 0 1-1.71 3.61l-3.28 3.67v.39h5.92ZM363.06 238.7c0-.38 0-.39-.32-.39a3.63 3.63 0 0 1-2.87 1v.47a4.7 4.7 0 0 0 2.07-.42v8.45c0 .58-.05.78-1.47.78H360v.47h5.08v-.47h-.5c-1.43 0-1.48-.2-1.48-.78ZM345.43 239.13a10.8 10.8 0 0 0 3.34-.46 2.66 2.66 0 0 0 1.94-2.46c0-1-.89-2-2.43-2a6.32 6.32 0 0 0-6 6.38c0 2.45 1.4 4.15 3.53 4.15A6.17 6.17 0 0 0 351 242a.27.27 0 0 0-.23-.25c-.07 0-.09 0-.3.23a6 6 0 0 1-4.6 2.34c-1.34 0-2-1-2-2.78a9.6 9.6 0 0 1 .35-2.41Zm-1.12-.46c1-3.6 3.22-3.95 4-3.95a1.54 1.54 0 0 1 1.73 1.49c0 2.46-3.74 2.46-4.72 2.46Z" class="l"/><g class="j"><path d="M426 150.64c10.54-9.14 11.09-23 .64-33.47" class="i"/><path d="m426.83 117.16-.01.04-.19-.01v.19h-.04v-.24z" class="a"/><path d="M426 150.64c10.19-8.83 11-22 1.66-32.39" class="r"/><path d="m434.93 118.17-.17 1.39-6.85-.84-.34 6.89-1.4-.07.42-8.4z" class="s"/></g><g class="j"><path d="M360.35 257.94c-2.8 11-12.56 17.57-25.4 15.9" class="i"/><path d="m335.1 273.69.02.03-.16.12.14.14-.04.03-.16-.18z" class="a"/><path d="M360.35 257.94c-2.69 10.57-11.82 17.06-23.93 16.06" class="r"/><path d="m341.31 268.38.91 1.07-5.26 4.47 4.84 4.92-.99.98-5.91-5.99z" class="s"/></g><g class="j"><path d="M455.32 257.94c2.8 11 12.56 17.57 25.4 15.9" class="i"/><path d="m480.61 274.01-.03-.03.13-.14-.16-.12.03-.03.19.14z" class="a"/><path d="M455.32 257.94C458 268.51 467.14 275 479.25 274" class="r"/><path d="m474.87 279.82-1-.98 4.84-4.92-5.26-4.47.91-1.07 6.41 5.45z" class="s"/></g><path d="M715.39 242c0-.38 0-.39-.33-.39a3.57 3.57 0 0 1-2.87 1v.47a4.6 4.6 0 0 0 2.08-.43v8.45c0 .58 0 .78-1.48.78h-.5v.47h5.08v-.47h-.51c-1.42 0-1.47-.2-1.47-.78ZM709.38 239.39a1.17 1.17 0 0 0-1 1.15.72.72 0 0 0 .77.74 1.21 1.21 0 0 0 1.19-1.23c0-1-1.12-1.43-2.1-1.43a3 3 0 0 0-2.43 1.85 2.43 2.43 0 0 0-2.41-1.85c-2.38 0-3.64 3.06-3.64 3.57a.25.25 0 0 0 .26.22c.19 0 .23-.15.28-.24.79-2.59 2.36-3.08 3-3.08 1.06 0 1.27 1 1.27 1.54a9.4 9.4 0 0 1-.43 2.17l-.79 3.2c-.35 1.4-1 2.69-2.26 2.69a2.3 2.3 0 0 1-1.19-.31 1.19 1.19 0 0 0 1-1.14.74.74 0 0 0-.79-.75 1.22 1.22 0 0 0-1.17 1.24c0 1 1.1 1.42 2.1 1.42a2.89 2.89 0 0 0 2.41-1.84 2.43 2.43 0 0 0 2.4 1.84c2.38 0 3.65-3.06 3.65-3.57a.22.22 0 0 0-.24-.21c-.21 0-.23.12-.3.3-.63 2.06-2 3-3 3-.81 0-1.26-.61-1.26-1.57a11 11 0 0 1 .47-2.43l.82-3.17c.35-1.4 1.14-2.43 2.21-2.43a2.5 2.5 0 0 1 1.18.32" class="l"/><path d="m627.05 257.24 57.35-31.61" class="i"/><path d="m627.24 257.32.01-.03-.19-.05.06-.19-.04-.01-.07.23z" class="a"/><g class="j"><path d="m627.01 257.27 56.06-30.91" class="k"/><path d="m681.77 233.61-1.33-.43 2.16-6.56-6.7-1.68.34-1.35 8.16 2.04z" class="l"/></g><path d="m778.56 257.24-57.35-31.61" class="i"/><path d="m778.52 257.04-.03.01.06.19-.19.05.01.03.23-.05z" class="a"/><g class="j"><path d="m778.6 257.27-56.06-30.91" class="k"/><path d="m729.37 223.59.34 1.35-6.7 1.68 2.16 6.56-1.33.43-2.63-7.98z" class="l"/></g><path d="M702.97 103.17v88.72" class="i"/><path d="m702.81 191.75.03-.02.13.14.14-.14.03.02-.17.18z" class="a"/><g class="j"><path d="M702.97 103.17v87.24" class="k"/><path d="m697.25 185.77 1.02-.95 4.7 5.06 4.7-5.06 1.03.95-5.73 6.16z" class="l"/></g><circle cx="702.97" cy="103.17" r="16.07" class="n"/><circle cx="702.97" cy="215.39" r="16.07" style="fill:url(#a)"/><circle cx="607.62" cy="267.95" r="16.07" class="n"/><circle cx="798.32" cy="267.95" r="16.07" class="n"/><path d="M622.84 302.72h-.36a6.4 6.4 0 0 1-.34 1.42 4.1 4.1 0 0 1-1.52.15h-3c.43-.37 1.42-1.41 1.84-1.8 2.47-2.27 3.38-3.11 3.38-4.72a3.14 3.14 0 0 0-3.36-3.11 3 3 0 0 0-3 3 .76.76 0 1 0 1.52.07.73.73 0 0 0-.76-.77.6.6 0 0 0-.23 0 2.38 2.38 0 0 1 2.24-1.85c1.38 0 2.22 1.15 2.22 2.64a5.6 5.6 0 0 1-1.72 3.62l-3.27 3.66v.39h5.92ZM601 295.06a6.5 6.5 0 0 1 1.49-2.06 3.4 3.4 0 0 1 2.31-.93c.93 0 1.26.7 1.26 1.63a6.8 6.8 0 0 1-.28 1.71l-.58 2.4c-.19.7-.63 2.43-.68 2.69s-.23 1-.23 1.05a.57.57 0 0 0 .6.58c.7 0 .82-.53 1-1.38l1.4-5.58c.05-.18 1.26-3.1 3.83-3.1.94 0 1.26.7 1.26 1.63A21.2 21.2 0 0 1 611 299a3.5 3.5 0 0 0-.33 1.28 1.81 1.81 0 0 0 1.85 1.89c2.17 0 3-3.43 3-3.57a.21.21 0 0 0-.23-.21c-.21 0-.23.07-.35.47-.54 1.86-1.4 2.85-2.33 2.85-.24 0-.61 0-.61-.78a5.5 5.5 0 0 1 .37-1.61 21 21 0 0 0 1.47-5.23 2.31 2.31 0 0 0-2.59-2.45 4.56 4.56 0 0 0-3.76 2.27 2.3 2.3 0 0 0-2.59-2.27 4.36 4.36 0 0 0-3.59 2.06 2 2 0 0 0-2.06-2.06 1.8 1.8 0 0 0-1.66 1.22 10.8 10.8 0 0 0-.74 2.35.23.23 0 0 0 .25.21c.19 0 .21 0 .35-.56.35-1.37.8-2.75 1.73-2.75.54 0 .72.37.72 1.07a13 13 0 0 1-.39 2.15l-.66 2.52c-.09.45-.35 1.5-.46 1.92-.17.6-.42 1.7-.42 1.82a.57.57 0 0 0 .6.58.91.91 0 0 0 .8-.49c0-.11.25-.93.37-1.4l.51-2.1ZM627.62 295.05c0-.37 0-.39-.33-.39a3.59 3.59 0 0 1-2.87 1v.47a4.7 4.7 0 0 0 2.08-.42v8.44c0 .59 0 .78-1.48.78h-.5v.47h5.07v-.4h-.5c-1.43 0-1.47-.19-1.47-.78ZM812.45 299.28c-.27 0-.34 0-.34.18s.08.16.38.16h.74c1.38 0 2 1.14 2 2.69 0 2.13-1.11 2.69-1.9 2.69a2.88 2.88 0 0 1-2.58-1.44.79.79 0 0 0 1-.79.77.77 0 0 0-.79-.8.78.78 0 0 0-.82.85c0 1.44 1.45 2.62 3.25 2.62a3.24 3.24 0 0 0 3.35-3.11 3.11 3.11 0 0 0-2.74-2.93 3.06 3.06 0 0 0 2.32-2.86c0-1.28-1.33-2.22-2.91-2.22s-2.82 1-2.82 2.17a.72.72 0 0 0 .75.78.74.74 0 1 0 0-1.47h-.18a2.67 2.67 0 0 1 2.22-1.1c.54 0 1.59.24 1.59 1.83a3.64 3.64 0 0 1-.52 1.91 1.6 1.6 0 0 1-1.47.78ZM821.39 295.05c0-.37 0-.39-.32-.39a3.59 3.59 0 0 1-2.87 1v.47a4.7 4.7 0 0 0 2.08-.42v8.44c0 .59 0 .78-1.48.78h-.5v.47h5.07v-.4h-.5c-1.43 0-1.48-.19-1.48-.78ZM792.72 295.06a6.6 6.6 0 0 1 1.5-2.06 3.37 3.37 0 0 1 2.31-.93c.93 0 1.26.7 1.26 1.63a6.8 6.8 0 0 1-.28 1.71l-.59 2.4c-.18.7-.63 2.43-.67 2.69a9 9 0 0 0-.24 1.05.58.58 0 0 0 .61.58c.7 0 .82-.53 1-1.38l1.4-5.58c.05-.18 1.26-3.1 3.83-3.1.93 0 1.26.7 1.26 1.63a20.8 20.8 0 0 1-1.43 5.26 3.4 3.4 0 0 0-.32 1.28 1.8 1.8 0 0 0 1.84 1.89c2.17 0 3-3.43 3-3.57a.21.21 0 0 0-.23-.21c-.21 0-.24.07-.35.47-.54 1.86-1.4 2.85-2.34 2.85-.23 0-.6 0-.6-.78a5.5 5.5 0 0 1 .37-1.61 21 21 0 0 0 1.47-5.23 2.31 2.31 0 0 0-2.52-2.45 4.53 4.53 0 0 0-3.76 2.27 2.3 2.3 0 0 0-2.59-2.27 4.38 4.38 0 0 0-3.6 2.06 2 2 0 0 0-2-2.06 1.79 1.79 0 0 0-1.66 1.22 11 11 0 0 0-.75 2.35.24.24 0 0 0 .26.21c.19 0 .21 0 .35-.56.35-1.37.79-2.75 1.73-2.75.53 0 .72.37.72 1.07a12 12 0 0 1-.4 2.15l-.65 2.52c-.09.45-.35 1.5-.47 1.92-.16.6-.42 1.7-.42 1.82a.58.58 0 0 0 .61.58.88.88 0 0 0 .79-.49c.05-.11.26-.93.38-1.4l.51-2.1Z" class="l"/><g class="q"><path d="M686.9 144.78h32.15v20.96H686.9z" class="a"/></g><g class="q"><path d="M737.84 232.73h36.54v20.22h-36.54z" class="a"/></g><g class="q"><path d="M634.74 228.95h30.56v25.44h-30.56z" class="a"/></g><path d="M712.36 152.33c0-.38 0-.39-.32-.39a3.63 3.63 0 0 1-2.87 1v.47a4.7 4.7 0 0 0 2.07-.42v8.45c0 .58 0 .78-1.47.78h-.5v.47h5.07v-.47h-.5c-1.43 0-1.48-.2-1.48-.78ZM706.53 152.16c0-.3 0-.39-.23-.39s-.17 0-.3.2l-4.88 7.57v.46h4.26v1.48c0 .59 0 .76-1.22.76h-.32v.47h4.23v-.47h-.32c-1.17 0-1.22-.17-1.22-.76V160h1.64v-.47h-1.64Zm-1.07 1.27v6.11h-3.94ZM694.73 152.85a10.8 10.8 0 0 0 3.34-.47 2.65 2.65 0 0 0 1.94-2.45c0-1-.89-2-2.43-2a6.32 6.32 0 0 0-6 6.38c0 2.45 1.41 4.15 3.53 4.15a6.15 6.15 0 0 0 5.18-2.78.27.27 0 0 0-.23-.25c-.07 0-.09 0-.3.23a6 6 0 0 1-4.6 2.33c-1.33 0-2-1.05-2-2.77a9.6 9.6 0 0 1 .35-2.41Zm-1.12-.47c1-3.59 3.22-3.94 4-3.94a1.54 1.54 0 0 1 1.73 1.49c0 2.45-3.74 2.45-4.72 2.45ZM722 73.77c0-.37 0-.39-.32-.39a3.59 3.59 0 0 1-2.87 1v.47a4.7 4.7 0 0 0 2.07-.42v8.44c0 .59-.05.78-1.47.78h-.51v.47h5.08v-.47h-.5c-1.43 0-1.48-.19-1.48-.78ZM716.13 73.61c0-.31 0-.39-.23-.39s-.18 0-.31.19L710.72 81v.47H715v1.47c0 .6 0 .76-1.22.76h-.32v.47h4.23v-.47h-.32c-1.17 0-1.22-.16-1.22-.76v-1.48h1.64V81h-1.64Zm-1.07 1.26V81h-3.94ZM696 72.87a6.6 6.6 0 0 1 1.5-2.05 3.38 3.38 0 0 1 2.31-.94c.93 0 1.26.7 1.26 1.64a6.7 6.7 0 0 1-.28 1.7l-.59 2.41c-.18.7-.63 2.43-.67 2.68a9 9 0 0 0-.24 1 .59.59 0 0 0 .61.59c.7 0 .82-.54 1-1.38l1.4-5.52c0-.19 1.26-3.11 3.83-3.11.93 0 1.26.7 1.26 1.64a20.7 20.7 0 0 1-1.39 5.24 3.5 3.5 0 0 0-.32 1.29 1.8 1.8 0 0 0 1.8 1.94c2.17 0 3-3.44 3-3.58a.22.22 0 0 0-.23-.21c-.21 0-.24.07-.35.47-.54 1.87-1.4 2.85-2.34 2.85-.23 0-.61 0-.61-.77a5 5 0 0 1 .38-1.61 21.2 21.2 0 0 0 1.47-5.23 2.31 2.31 0 0 0-2.59-2.45 4.52 4.52 0 0 0-3.76 2.26 2.29 2.29 0 0 0-2.59-2.26 4.4 4.4 0 0 0-3.6 2 2 2 0 0 0-2-2 1.78 1.78 0 0 0-1.66 1.21 11 11 0 0 0-.75 2.36.24.24 0 0 0 .26.21c.18 0 .21 0 .35-.56.35-1.38.79-2.76 1.73-2.76.53 0 .72.38.72 1.08a12.5 12.5 0 0 1-.4 2.15l-.65 2.52c-.09.44-.35 1.49-.47 1.91-.16.61-.42 1.71-.42 1.82a.59.59 0 0 0 .61.59.88.88 0 0 0 .79-.49c.05-.12.26-.94.38-1.4l.45-2.11ZM754.53 242.93c-.27 0-.34 0-.34.18s.08.16.38.16h.74c1.38 0 2 1.13 2 2.69 0 2.12-1.11 2.69-1.9 2.69a2.88 2.88 0 0 1-2.58-1.44.8.8 0 0 0 1-.8.76.76 0 0 0-.79-.79.77.77 0 0 0-.81.84c0 1.44 1.44 2.63 3.24 2.63a3.24 3.24 0 0 0 3.35-3.11 3.12 3.12 0 0 0-2.75-2.94 3.05 3.05 0 0 0 2.32-2.85c0-1.28-1.33-2.22-2.91-2.22s-2.82 1-2.82 2.17a.74.74 0 1 0 1.48.05.72.72 0 0 0-.75-.75.4.4 0 0 0-.18 0 2.68 2.68 0 0 1 2.23-1.1c.53 0 1.58.24 1.58 1.83a3.6 3.6 0 0 1-.51 1.91 1.66 1.66 0 0 1-1.48.78ZM763.23 238.7c0-.38 0-.39-.32-.39a3.63 3.63 0 0 1-2.87 1v.47a4.7 4.7 0 0 0 2.08-.42v8.45c0 .58 0 .78-1.48.78h-.5v.47h5.07v-.47h-.5c-1.43 0-1.48-.2-1.48-.78ZM745.6 239.13a10.7 10.7 0 0 0 3.34-.46 2.66 2.66 0 0 0 1.94-2.46c0-1-.89-2-2.43-2a6.31 6.31 0 0 0-6 6.38c0 2.45 1.4 4.15 3.52 4.15a6.18 6.18 0 0 0 5.19-2.78.27.27 0 0 0-.24-.25c-.07 0-.09 0-.3.23a6 6 0 0 1-4.6 2.34c-1.33 0-2-1-2-2.78a9.6 9.6 0 0 1 .35-2.41Zm-1.12-.46c1-3.6 3.23-3.95 4-3.95a1.54 1.54 0 0 1 1.73 1.49c0 2.46-3.73 2.46-4.72 2.46ZM653.19 246.36h-.36a5.5 5.5 0 0 1-.34 1.43 4.1 4.1 0 0 1-1.52.15h-3c.44-.38 1.43-1.41 1.85-1.8 2.46-2.27 3.37-3.12 3.37-4.72a3.13 3.13 0 0 0-3.36-3.11 3 3 0 0 0-3 3 .77.77 0 1 0 1.53.06.73.73 0 0 0-.77-.76.5.5 0 0 0-.22 0 2.35 2.35 0 0 1 2.23-1.85c1.38 0 2.23 1.15 2.23 2.64a5.62 5.62 0 0 1-1.72 3.61l-3.28 3.67v.39h5.92ZM657.64 238.7c0-.38 0-.39-.32-.39a3.63 3.63 0 0 1-2.87 1v.47a4.7 4.7 0 0 0 2.07-.42v8.45c0 .58 0 .78-1.47.78h-.5v.47h5.07v-.47h-.5c-1.43 0-1.48-.2-1.48-.78ZM640 239.13a10.8 10.8 0 0 0 3.34-.46 2.66 2.66 0 0 0 1.94-2.46c0-1-.89-2-2.43-2a6.32 6.32 0 0 0-6 6.38c0 2.45 1.41 4.15 3.53 4.15a6.15 6.15 0 0 0 5.18-2.78.27.27 0 0 0-.23-.25c-.07 0-.09 0-.3.23a6 6 0 0 1-4.6 2.34c-1.33 0-2-1-2-2.78a9.6 9.6 0 0 1 .35-2.41Zm-1.12-.46c1-3.6 3.22-3.95 4-3.95a1.54 1.54 0 0 1 1.73 1.49c0 2.46-3.74 2.46-4.72 2.46ZM712.39 235.27h2.39l-2.32 2.84h-1.62Z" class="l"/></svg>